<svg width="24" height="24" viewBox="0 0 24 24" fill="none" xmlns="http://www.w3.org/2000/svg">
<g clip-path="url(#clip0_247_2)">
<path d="M12 14.5C13.3789 14.5 14.5 13.3789 14.5 12C14.5 10.6211 13.3789 9.5 12 9.5C10.6211 9.5 9.5 10.6211 9.5 12C9.5 13.3789 10.6211 14.5 12 14.5ZM12 11.5C12.2754 11.5 12.5 11.7246 12.5 12C12.5 12.2754 12.2754 12.5 12 12.5C11.7246 12.5 11.5 12.2754 11.5 12C11.5 11.7246 11.7246 11.5 12 11.5Z" fill="url(#paint0_linear_247_2)"/>
<path d="M1.29297 5.70703C1.48828 5.90234 1.74414 6 2 6C2.25586 6 2.51172 5.90234 2.70703 5.70703L3.5 4.91406L4.29297 5.70703C4.48828 5.90234 4.74414 6 5 6C5.25586 6 5.51172 5.90234 5.70703 5.70703C6.09766 5.31641 6.09766 4.68359 5.70703 4.29297L4.91406 3.5L5.70703 2.70703C6.09766 2.31641 6.09766 1.68359 5.70703 1.29297C5.31641 0.902344 4.68359 0.902344 4.29297 1.29297L3.5 2.08594L2.70703 1.29297C2.31641 0.902344 1.68359 0.902344 1.29297 1.29297C0.902344 1.68359 0.902344 2.31641 1.29297 2.70703L2.08594 3.5L1.29297 4.29297C0.902344 4.68359 0.902344 5.31641 1.29297 5.70703Z" fill="url(#paint1_linear_247_2)"/>
<path d="M22.707 18.293C22.3164 17.9023 21.6836 17.9023 21.293 18.293L20.5 19.0859L19.707 18.293C19.3164 17.9023 18.6836 17.9023 18.293 18.293C17.9023 18.6836 17.9023 19.3164 18.293 19.707L19.0859 20.5L18.293 21.293C17.9023 21.6836 17.9023 22.3164 18.293 22.707C18.4883 22.9023 18.7441 23 19 23C19.2559 23 19.5117 22.9023 19.707 22.707L20.5 21.9141L21.293 22.707C21.4883 22.9023 21.7441 23 22 23C22.2559 23 22.5117 22.9023 22.707 22.707C23.0977 22.3164 23.0977 21.6836 22.707 21.293L21.9141 20.5L22.707 19.707C23.0977 19.3164 23.0977 18.6836 22.707 18.293Z" fill="url(#paint2_linear_247_2)"/>
<path d="M23.5 9C23.7764 9 24 8.77637 24 8.5V7.5C24 7.22363 23.7764 7 23.5 7H17V0.5C17 0.223633 16.7764 0 16.5 0H15.5C15.2236 0 15 0.223633 15 0.5V7H9V0.5C9 0.223633 8.77637 0 8.5 0H7.5C7.22363 0 7 0.223633 7 0.5V7H0.5C0.223633 7 0 7.22363 0 7.5V8.5C0 8.77637 0.223633 9 0.5 9H7V15H0.5C0.223633 15 0 15.2236 0 15.5V16.5C0 16.7764 0.223633 17 0.5 17H7V23.5C7 23.7764 7.22363 24 7.5 24H8.5C8.77637 24 9 23.7764 9 23.5V17H15V23.5C15 23.7764 15.2236 24 15.5 24H16.5C16.7764 24 17 23.7764 17 23.5V17H23.5C23.7764 17 24 16.7764 24 16.5V15.5C24 15.2236 23.7764 15 23.5 15H17V9H23.5ZM15 15H9V9H15V15Z" fill="url(#paint3_linear_247_2)"/>
</g>
<defs>
<linearGradient id="paint0_linear_247_2" x1="12" y1="9.5" x2="12" y2="14.5" gradientUnits="userSpaceOnUse">
<stop stop-color="#DF5FFF"/>
<stop offset="1" stop-color="#FF659C"/>
</linearGradient>
<linearGradient id="paint1_linear_247_2" x1="3.5" y1="1" x2="3.5" y2="6" gradientUnits="userSpaceOnUse">
<stop stop-color="#DF5FFF"/>
<stop offset="1" stop-color="#FF659C"/>
</linearGradient>
<linearGradient id="paint2_linear_247_2" x1="20.5" y1="18" x2="20.5" y2="23" gradientUnits="userSpaceOnUse">
<stop stop-color="#DF5FFF"/>
<stop offset="1" stop-color="#FF659C"/>
</linearGradient>
<linearGradient id="paint3_linear_247_2" x1="12" y1="0" x2="12" y2="24" gradientUnits="userSpaceOnUse">
<stop stop-color="#DF5FFF"/>
<stop offset="1" stop-color="#FF659C"/>
</linearGradient>
<clipPath id="clip0_247_2">
<rect width="24" height="24" fill="white"/>
</clipPath>
</defs>
</svg>
